<svg width="700" height="180" viewBox="0 0 700 180" xmlns="http://www.w3.org/2000/svg">
  <rect width="700" height="180" fill="#f5f6f8"/>

  <!-- Source Node -->
  <g transform="translate(50, 50)">
    <rect x="0" y="0" width="150" height="80" rx="10" fill="#ffffff" stroke="#e5e7eb" stroke-width="1"/>
    <rect x="0" y="0" width="3" height="80" rx="1.5" fill="#4a9eff"/>

    <text x="75" y="35" text-anchor="middle" font-family="Inter, sans-serif" font-size="14" font-weight="600" fill="#1a1a2e">Entity A</text>

    <g transform="translate(20, 50)">
      <rect x="0" y="0" width="28" height="22" rx="3" fill="#e8f4ff"/>
      <text x="14" y="15" text-anchor="middle" font-family="Inter, sans-serif" font-size="11" font-weight="600" fill="#4a9eff">2</text>
      <text x="38" y="14" font-family="Inter, sans-serif" font-size="9" font-weight="500" fill="#666666" letter-spacing="0.3">DOMAIN</text>
    </g>
  </g>

  <!-- Relationship Line with arrow (no cardinality) -->
  <g>
    <path d="M 200 90 C 280 90, 380 90, 470 90" fill="none" stroke="#4caf50" stroke-width="2"/>

    <!-- Arrow at target end -->
    <polygon points="470,90 458,84 458,96" fill="#4caf50"/>

    <!-- Verb label -->
    <rect x="295" y="72" width="70" height="24" rx="4" fill="#ffffff" stroke="#e5e7eb" stroke-width="1"/>
    <text x="330" y="88" text-anchor="middle" font-family="Inter, sans-serif" font-size="11" font-weight="500" fill="#1a1a2e">relates_to</text>
  </g>

  <!-- Target Node -->
  <g transform="translate(500, 50)">
    <rect x="0" y="0" width="150" height="80" rx="10" fill="#ffffff" stroke="#e5e7eb" stroke-width="1"/>
    <rect x="0" y="0" width="3" height="80" rx="1.5" fill="#4a9eff"/>

    <text x="75" y="35" text-anchor="middle" font-family="Inter, sans-serif" font-size="14" font-weight="600" fill="#1a1a2e">Entity B</text>

    <g transform="translate(20, 50)">
      <rect x="0" y="0" width="28" height="22" rx="3" fill="#e8f4ff"/>
      <text x="14" y="15" text-anchor="middle" font-family="Inter, sans-serif" font-size="11" font-weight="600" fill="#4a9eff">4</text>
      <text x="38" y="14" font-family="Inter, sans-serif" font-size="9" font-weight="500" fill="#666666" letter-spacing="0.3">DOMAIN</text>
    </g>
  </g>

  <text x="350" y="155" text-anchor="middle" font-family="Inter, sans-serif" font-size="10" fill="#888888">No cardinality defined: simple arrow (current behavior)</text>
  <text x="350" y="170" text-anchor="middle" font-family="Inter, sans-serif" font-size="10" fill="#888888">Backward compatible with existing relationships</text>
</svg>
