<svg width="700" height="180" viewBox="0 0 700 180" xmlns="http://www.w3.org/2000/svg">
  <rect width="700" height="180" fill="#f5f6f8"/>

  <!-- User Concept Node -->
  <g transform="translate(50, 50)">
    <rect x="0" y="0" width="150" height="80" rx="10" fill="#ffffff" stroke="#e5e7eb" stroke-width="1"/>
    <rect x="0" y="0" width="3" height="80" rx="1.5" fill="#9c27b0"/>

    <text x="75" y="35" text-anchor="middle" font-family="Inter, sans-serif" font-size="14" font-weight="600" fill="#1a1a2e">User</text>

    <g transform="translate(20, 50)">
      <rect x="0" y="0" width="28" height="22" rx="3" fill="#e8f4ff"/>
      <text x="14" y="15" text-anchor="middle" font-family="Inter, sans-serif" font-size="11" font-weight="600" fill="#4a9eff">2</text>
      <text x="38" y="14" font-family="Inter, sans-serif" font-size="9" font-weight="500" fill="#666666" letter-spacing="0.3">IDENTITY</text>
    </g>
  </g>

  <!-- Relationship Line -->
  <g>
    <path d="M 200 90 C 280 90, 380 90, 460 90" fill="none" stroke="#4caf50" stroke-width="2"/>

    <!-- Source end: Exactly One (||) -->
    <line x1="205" y1="82" x2="205" y2="98" stroke="#4caf50" stroke-width="2"/>
    <line x1="212" y1="82" x2="212" y2="98" stroke="#4caf50" stroke-width="2"/>

    <!-- Target end: Exactly One (||) -->
    <line x1="468" y1="82" x2="468" y2="98" stroke="#4caf50" stroke-width="2"/>
    <line x1="475" y1="82" x2="475" y2="98" stroke="#4caf50" stroke-width="2"/>

    <!-- Verb label -->
    <rect x="305" y="72" width="50" height="24" rx="4" fill="#ffffff" stroke="#e5e7eb" stroke-width="1"/>
    <text x="330" y="88" text-anchor="middle" font-family="Inter, sans-serif" font-size="11" font-weight="500" fill="#1a1a2e">has</text>
  </g>

  <!-- Profile Concept Node -->
  <g transform="translate(500, 50)">
    <rect x="0" y="0" width="150" height="80" rx="10" fill="#ffffff" stroke="#e5e7eb" stroke-width="1"/>
    <rect x="0" y="0" width="3" height="80" rx="1.5" fill="#9c27b0"/>

    <text x="75" y="35" text-anchor="middle" font-family="Inter, sans-serif" font-size="14" font-weight="600" fill="#1a1a2e">Profile</text>

    <g transform="translate(20, 50)">
      <rect x="0" y="0" width="28" height="22" rx="3" fill="#e8f4ff"/>
      <text x="14" y="15" text-anchor="middle" font-family="Inter, sans-serif" font-size="11" font-weight="600" fill="#4a9eff">2</text>
      <text x="38" y="14" font-family="Inter, sans-serif" font-size="9" font-weight="500" fill="#666666" letter-spacing="0.3">IDENTITY</text>
    </g>
  </g>

  <text x="350" y="155" text-anchor="middle" font-family="Inter, sans-serif" font-size="10" fill="#888888">Both ends: ││ (exactly one)</text>
  <text x="350" y="170" text-anchor="middle" font-family="Inter, sans-serif" font-size="10" fill="#888888">"Each User has exactly one Profile"</text>
</svg>
