<svg width="600" height="200" viewBox="0 0 600 200" xmlns="http://www.w3.org/2000/svg">
  <!-- Background -->
  <rect width="600" height="200" fill="#f5f6f8"/>

  <!-- Title -->
  <text x="300" y="25" text-anchor="middle" font-family="Inter, sans-serif" font-size="14" font-weight="600" fill="#1a1a2e">Crow's Foot Symbol Components</text>

  <!-- Ring (Optional) -->
  <g transform="translate(75, 80)">
    <line x1="0" y1="0" x2="80" y2="0" stroke="#4caf50" stroke-width="2"/>
    <circle cx="40" cy="0" r="6" fill="none" stroke="#4caf50" stroke-width="2"/>
    <text x="40" y="35" text-anchor="middle" font-family="Inter, sans-serif" font-size="11" fill="#666666">Ring (Optional)</text>
    <text x="40" y="50" text-anchor="middle" font-family="monospace" font-size="9" fill="#888888">○</text>
  </g>

  <!-- Bar (Mandatory) -->
  <g transform="translate(225, 80)">
    <line x1="0" y1="0" x2="80" y2="0" stroke="#4caf50" stroke-width="2"/>
    <line x1="40" y1="-8" x2="40" y2="8" stroke="#4caf50" stroke-width="2"/>
    <text x="40" y="35" text-anchor="middle" font-family="Inter, sans-serif" font-size="11" fill="#666666">Bar (Mandatory)</text>
    <text x="40" y="50" text-anchor="middle" font-family="monospace" font-size="9" fill="#888888">│</text>
  </g>

  <!-- Crow's Foot (Many) -->
  <g transform="translate(375, 80)">
    <line x1="0" y1="0" x2="50" y2="0" stroke="#4caf50" stroke-width="2"/>
    <line x1="50" y1="0" x2="80" y2="-12" stroke="#4caf50" stroke-width="2"/>
    <line x1="50" y1="0" x2="80" y2="0" stroke="#4caf50" stroke-width="2"/>
    <line x1="50" y1="0" x2="80" y2="12" stroke="#4caf50" stroke-width="2"/>
    <text x="40" y="35" text-anchor="middle" font-family="Inter, sans-serif" font-size="11" fill="#666666">Crow's Foot (Many)</text>
    <text x="40" y="50" text-anchor="middle" font-family="monospace" font-size="9" fill="#888888">⋔</text>
  </g>

  <!-- Composed: Zero or Many -->
  <g transform="translate(75, 150)">
    <line x1="0" y1="0" x2="30" y2="0" stroke="#4caf50" stroke-width="2"/>
    <circle cx="35" cy="0" r="5" fill="none" stroke="#4caf50" stroke-width="2"/>
    <line x1="40" y1="0" x2="50" y2="0" stroke="#4caf50" stroke-width="2"/>
    <line x1="50" y1="0" x2="80" y2="-10" stroke="#4caf50" stroke-width="2"/>
    <line x1="50" y1="0" x2="80" y2="0" stroke="#4caf50" stroke-width="2"/>
    <line x1="50" y1="0" x2="80" y2="10" stroke="#4caf50" stroke-width="2"/>
    <text x="40" y="30" text-anchor="middle" font-family="Inter, sans-serif" font-size="10" fill="#666666">Zero or Many</text>
  </g>

  <!-- Composed: One or Many -->
  <g transform="translate(200, 150)">
    <line x1="0" y1="0" x2="32" y2="0" stroke="#4caf50" stroke-width="2"/>
    <line x1="35" y1="-7" x2="35" y2="7" stroke="#4caf50" stroke-width="2"/>
    <line x1="38" y1="0" x2="50" y2="0" stroke="#4caf50" stroke-width="2"/>
    <line x1="50" y1="0" x2="80" y2="-10" stroke="#4caf50" stroke-width="2"/>
    <line x1="50" y1="0" x2="80" y2="0" stroke="#4caf50" stroke-width="2"/>
    <line x1="50" y1="0" x2="80" y2="10" stroke="#4caf50" stroke-width="2"/>
    <text x="40" y="30" text-anchor="middle" font-family="Inter, sans-serif" font-size="10" fill="#666666">One or Many</text>
  </g>

  <!-- Composed: Zero or One -->
  <g transform="translate(325, 150)">
    <line x1="0" y1="0" x2="30" y2="0" stroke="#4caf50" stroke-width="2"/>
    <circle cx="35" cy="0" r="5" fill="none" stroke="#4caf50" stroke-width="2"/>
    <line x1="40" y1="0" x2="55" y2="0" stroke="#4caf50" stroke-width="2"/>
    <line x1="58" y1="-7" x2="58" y2="7" stroke="#4caf50" stroke-width="2"/>
    <line x1="61" y1="0" x2="80" y2="0" stroke="#4caf50" stroke-width="2"/>
    <text x="40" y="30" text-anchor="middle" font-family="Inter, sans-serif" font-size="10" fill="#666666">Zero or One</text>
  </g>

  <!-- Composed: Exactly One -->
  <g transform="translate(450, 150)">
    <line x1="0" y1="0" x2="32" y2="0" stroke="#4caf50" stroke-width="2"/>
    <line x1="35" y1="-7" x2="35" y2="7" stroke="#4caf50" stroke-width="2"/>
    <line x1="38" y1="0" x2="52" y2="0" stroke="#4caf50" stroke-width="2"/>
    <line x1="55" y1="-7" x2="55" y2="7" stroke="#4caf50" stroke-width="2"/>
    <line x1="58" y1="0" x2="80" y2="0" stroke="#4caf50" stroke-width="2"/>
    <text x="40" y="30" text-anchor="middle" font-family="Inter, sans-serif" font-size="10" fill="#666666">Exactly One</text>
  </g>
</svg>
